<svg width="100" height="100" viewBox="0 0 100 100" fill="none" xmlns="http://www.w3.org/2000/svg">
<g clip-path="url(#clip0_10_41)">
<path d="M91.6667 70.5V83C91.6714 84.1604 91.4337 85.309 90.9688 86.3723C90.504 87.4355 89.8221 88.39 88.967 89.1744C88.1119 89.9589 87.1024 90.5562 86.0032 90.9279C84.9039 91.2997 83.7391 91.4378 82.5834 91.3333C69.7619 89.9402 57.4459 85.5589 46.625 78.5417C36.5577 72.1444 28.0223 63.6091 21.625 53.5417C14.5833 42.6717 10.2011 30.2958 8.83338 17.4167C8.72926 16.2644 8.86619 15.1032 9.23547 14.0068C9.60474 12.9104 10.1983 11.9029 10.9782 11.0484C11.7582 10.194 12.7076 9.51129 13.7658 9.04384C14.8241 8.5764 15.9681 8.33442 17.125 8.33334H29.625C31.6472 8.31343 33.6075 9.0295 35.1407 10.3481C36.6739 11.6666 37.6754 13.4977 37.9584 15.5C38.486 19.5003 39.4644 23.428 40.875 27.2083C41.4356 28.6997 41.557 30.3205 41.2247 31.8787C40.8923 33.4369 40.1203 34.8671 39 36L33.7084 41.2917C39.6399 51.7231 48.2769 60.3602 58.7084 66.2917L64 61C65.1329 59.8797 66.5632 59.1077 68.1214 58.7754C69.6796 58.4431 71.3004 58.5644 72.7917 59.125C76.572 60.5356 80.4998 61.5141 84.5 62.0417C86.5241 62.3272 88.3726 63.3467 89.6939 64.9062C91.0153 66.4658 91.7174 68.4566 91.6667 70.5Z" stroke="#1E1E1E" stroke-width="4" stroke-linecap="round" stroke-linejoin="round"/>
</g>
<defs>
<clipPath id="clip0_10_41">
<rect width="100" height="100" fill="white"/>
</clipPath>
</defs>
</svg>
