<svg width="100" height="100" viewBox="0 0 100 100" fill="none" xmlns="http://www.w3.org/2000/svg">
<g clip-path="url(#clip0_10_37)">
<path d="M91.6667 79.1667C91.6667 81.3768 90.7887 83.4964 89.2259 85.0592C87.6631 86.622 85.5435 87.5 83.3334 87.5H16.6667C14.4566 87.5 12.337 86.622 10.7742 85.0592C9.21135 83.4964 8.33337 81.3768 8.33337 79.1667V20.8333C8.33337 18.6232 9.21135 16.5036 10.7742 14.9408C12.337 13.378 14.4566 12.5 16.6667 12.5H37.5L45.8334 25H83.3334C85.5435 25 87.6631 25.878 89.2259 27.4408C90.7887 29.0036 91.6667 31.1232 91.6667 33.3333V79.1667Z" stroke="#1E1E1E" stroke-width="4" stroke-linecap="round" stroke-linejoin="round"/>
</g>
<defs>
<clipPath id="clip0_10_37">
<rect width="100" height="100" fill="white"/>
</clipPath>
</defs>
</svg>
