<svg width="100" height="100" viewBox="0 0 100 100" fill="none" xmlns="http://www.w3.org/2000/svg">
<path d="M36.8203 52.709V70.0996C36.8203 71.7402 37.0527 73.0117 37.5176 73.9141C38.0098 74.7891 38.666 75.418 39.4863 75.8008C40.3066 76.1562 41.4688 76.3887 42.9727 76.498C44.4766 76.6074 45.8711 76.6895 47.1562 76.7441V79H17.3379V76.7441C19.5527 76.6895 21.207 76.5664 22.3008 76.375C23.4219 76.1836 24.2969 75.8145 24.9258 75.2676C25.582 74.7207 26.0195 74.0234 26.2383 73.1758C26.4844 72.3008 26.6074 71.1113 26.6074 69.6074V33.4727C26.6074 30.4648 26.4707 28.332 26.1973 27.0742C25.9512 25.8164 25.1719 24.8867 23.8594 24.2852C22.5742 23.6836 20.4004 23.3828 17.3379 23.3828V21.127H45.5566C46.8145 21.127 49.8223 21.3457 54.5801 21.7832C56.1113 21.9199 57.7383 22.3711 59.4609 23.1367C61.2109 23.9023 62.8379 24.9551 64.3418 26.2949C65.873 27.6074 67.1035 29.1797 68.0332 31.0117C68.9629 32.8164 69.4277 34.7852 69.4277 36.918C69.4277 39.2969 68.9492 41.4434 67.9922 43.3574C67.0625 45.2715 65.6133 46.9258 63.6445 48.3203C61.7031 49.7148 59.2422 50.7949 56.2617 51.5605C53.3086 52.3262 49.8633 52.709 45.9258 52.709H36.8203ZM27.9199 32.9805V71.5352C27.9199 74.1328 26.9219 75.8691 24.9258 76.7441H25.9922C29.0273 76.7441 30.5449 75.3086 30.5449 72.4375V34.9082C30.5449 31.5449 30.5176 29.3437 30.4629 28.3047C30.4355 27.2656 30.2578 26.377 29.9297 25.6387C29.6289 24.9004 29.0684 24.3672 28.248 24.0391C27.4551 23.6836 26.2246 23.4375 24.5566 23.3008C25.6504 23.8203 26.416 24.4082 26.8535 25.0645C27.291 25.7207 27.5781 26.6504 27.7148 27.8535C27.8516 29.0566 27.9199 30.7656 27.9199 32.9805ZM36.8203 50.4531H42.5625C46.0352 50.4531 48.9199 50.043 51.2168 49.2227C53.5137 48.375 55.2773 46.9668 56.5078 44.998C57.7383 43.002 58.3535 40.3359 58.3535 37C58.3535 31.9961 56.6719 28.25 53.3086 25.7617C51.9688 24.7773 50.6152 24.1348 49.248 23.834C47.8809 23.5332 46.1855 23.3828 44.1621 23.3828C41.8379 23.3828 40.1562 23.7109 39.1172 24.3672C38.1055 25.0234 37.4629 26.0078 37.1895 27.3203C36.9434 28.6328 36.8203 30.5742 36.8203 33.1445V50.4531ZM52.5293 50.002C55.8105 49.5098 58.2578 48.2109 59.8711 46.1055C61.4844 44 62.291 41.0195 62.291 37.1641C62.291 33.0898 61.4707 30.041 59.8301 28.0176C58.1895 25.9668 55.7285 24.5996 52.4473 23.916C54.0059 24.709 55.332 25.748 56.4258 27.0332C57.5195 28.3184 58.3398 29.8223 58.8867 31.5449C59.4336 33.2676 59.707 35.1406 59.707 37.1641C59.707 43.6719 57.3145 47.9512 52.5293 50.002Z" fill="black"/>
<path d="M63.9688 79V78.1406C65.0104 78.0885 65.7448 77.9844 66.1719 77.8281C66.599 77.6719 66.8802 77.3958 67.0156 77C67.1615 76.6042 67.2344 75.9479 67.2344 75.0312V68.2188H56.125V74.6875C56.125 75.4583 56.151 76.0417 56.2031 76.4375C56.2656 76.8229 56.3958 77.1354 56.5938 77.375C56.8021 77.6042 57.1042 77.7708 57.5 77.875C57.9062 77.9792 58.526 78.0677 59.3594 78.1406V79H48.9219V78.1406C49.6719 78.1198 50.2448 78.0729 50.6406 78C51.0469 77.9167 51.3646 77.7656 51.5938 77.5469C51.8333 77.3281 51.9948 77.0208 52.0781 76.625C52.1719 76.2292 52.2188 75.6771 52.2188 74.9688V60.3125C52.2188 59.3125 51.9844 58.6615 51.5156 58.3594C51.0573 58.0469 50.1927 57.8646 48.9219 57.8125V56.9531H59.3594V57.8125C58.3281 57.8229 57.5885 57.9323 57.1406 58.1406C56.6927 58.349 56.4115 58.6823 56.2969 59.1406C56.1823 59.599 56.125 60.3333 56.125 61.3438V67.0625H67.2344V60.5C67.2344 59.7292 67.1458 59.1719 66.9688 58.8281C66.7917 58.474 66.4896 58.2344 66.0625 58.1094C65.6354 57.9844 64.9375 57.8854 63.9688 57.8125V56.9531H74.4062V57.8125C73.3646 57.8438 72.625 57.9427 72.1875 58.1094C71.7604 58.276 71.4792 58.5885 71.3438 59.0469C71.2083 59.5052 71.1406 60.2708 71.1406 61.3438V74.9688C71.1406 75.8229 71.2031 76.4688 71.3281 76.9062C71.4635 77.3438 71.7552 77.6667 72.2031 77.875C72.6615 78.0729 73.3958 78.1615 74.4062 78.1406V79H63.9688ZM67.75 60.2188V75.7031C67.75 76.474 67.6615 77.0156 67.4844 77.3281C67.3073 77.6302 67.0208 77.901 66.625 78.1406H67.1406C67.7031 78.1406 68.1094 77.9792 68.3594 77.6562C68.6094 77.3333 68.7344 76.8229 68.7344 76.125V60.625C68.7344 59.6667 68.6406 58.9583 68.4531 58.5C68.2656 58.0417 67.8073 57.8125 67.0781 57.8125H66.625C67.0625 58.0104 67.3594 58.2865 67.5156 58.6406C67.6719 58.9948 67.75 59.5208 67.75 60.2188ZM52.7344 60.4375V75.3594C52.7344 76.2656 52.6302 76.9062 52.4219 77.2812C52.2135 77.6458 51.9531 77.9323 51.6406 78.1406H52.0938C52.6979 78.1406 53.1198 77.9062 53.3594 77.4375C53.6094 76.9583 53.7344 76.2396 53.7344 75.2812V61.2656C53.7344 60.2656 53.6979 59.5417 53.625 59.0938C53.5521 58.6354 53.3698 58.2969 53.0781 58.0781C52.7865 57.8594 52.3073 57.7708 51.6406 57.8125C52.0365 58.0208 52.3177 58.3073 52.4844 58.6719C52.651 59.026 52.7344 59.6146 52.7344 60.4375Z" fill="black"/>
</svg>
